<?xml version="1.0" standalone="no"?>
<!DOCTYPE svg PUBLIC "-//W3C//DTD SVG 20010904//EN"
 "http://www.w3.org/TR/2001/REC-SVG-20010904/DTD/svg10.dtd">
<svg version="1.0" xmlns="http://www.w3.org/2000/svg"
 width="404.000000pt" height="404.000000pt" viewBox="0 0 404.000000 404.000000"
 preserveAspectRatio="xMidYMid meet">
<metadata>
Created by potrace 1.11, written by Peter Selinger 2001-2013
</metadata>
<g transform="translate(0.000000,404.000000) scale(0.100000,-0.100000)"
fill="#000000" stroke="none">
<path d="M2085 3424 c-102 -36 -360 -102 -535 -138 -14 -3 -34 -7 -45 -9 -28
-7 -184 -35 -220 -40 -16 -3 -57 -10 -90 -15 -33 -6 -80 -14 -105 -17 -25 -3
-56 -8 -70 -10 -14 -2 -50 -6 -80 -10 -30 -3 -71 -8 -90 -10 -245 -29 -493
-37 -548 -18 -46 16 -71 48 -72 93 0 44 -13 59 -46 52 -67 -13 -110 -159 -67
-233 20 -34 91 -75 150 -86 78 -15 364 -9 508 12 144 20 238 28 234 19 -2 -5
-33 -67 -68 -139 -35 -71 -78 -161 -96 -200 -18 -38 -97 -200 -175 -360 -150
-305 -268 -549 -327 -675 -20 -41 -94 -194 -166 -340 -145 -298 -155 -333
-115 -418 27 -56 58 -69 107 -44 33 16 48 41 171 288 74 148 157 317 184 374
28 58 94 197 149 310 54 113 109 228 122 255 13 28 70 131 126 230 56 99 165
304 242 455 77 151 147 283 155 292 14 17 144 51 237 63 28 3 61 8 75 10 14 2
57 6 95 10 132 11 249 23 414 42 48 5 132 38 143 56 13 20 9 127 -6 155 -36
70 -87 82 -191 46z"/>
<path d="M2990 3428 c-32 -10 -12 23 -215 -358 -115 -216 -742 -1482 -763
-1540 -11 -31 -23 -71 -25 -89 -7 -41 -46 -83 -150 -161 -124 -94 -180 -91
-183 10 -5 135 160 425 413 727 59 71 64 100 22 147 -61 70 -125 86 -177 45
-58 -45 -258 -348 -327 -494 -21 -44 -55 -126 -75 -181 -47 -129 -114 -212
-245 -301 -60 -40 -75 -29 -75 56 0 133 112 372 274 586 34 44 67 86 73 93 23
24 26 63 9 99 -19 40 -84 74 -181 94 -68 14 -85 24 -85 49 0 27 -48 60 -87 60
-42 0 -92 -21 -116 -47 -10 -11 -26 -56 -37 -99 -29 -120 -69 -221 -169 -423
-50 -102 -91 -190 -91 -197 0 -21 30 -44 58 -44 23 0 35 13 77 77 27 42 55 86
61 97 164 313 195 356 239 339 22 -8 14 -75 -15 -133 -57 -112 -159 -407 -176
-512 -11 -65 -9 -159 4 -198 15 -44 56 -70 111 -70 63 0 141 42 266 145 l69
56 17 -50 c36 -105 90 -147 181 -139 70 6 137 45 241 139 l74 68 12 -41 c64
-214 272 -246 460 -72 99 91 174 201 271 399 116 236 162 363 161 435 -3 122
-31 186 -101 229 -40 24 -96 27 -143 7 -31 -13 -137 -112 -137 -128 0 -5 -5
-8 -11 -8 -12 0 130 277 319 620 185 337 182 332 247 454 68 128 72 160 29
213 -34 41 -66 54 -104 41z m-270 -1403 c30 -36 -10 -149 -126 -357 -124 -223
-230 -349 -336 -402 -104 -52 -128 -24 -84 98 39 107 171 339 251 441 98 125
194 217 240 228 35 8 42 7 55 -8z"/>
<path d="M2144 2692 c-70 -31 -99 -52 -135 -102 -91 -123 -19 -292 116 -273
71 10 163 86 200 166 41 87 15 202 -52 228 -38 14 -63 11 -129 -19z"/>
<path d="M3683 2260 c-34 -14 -87 -93 -159 -240 -36 -74 -70 -144 -75 -155
-29 -70 -53 -134 -89 -240 -47 -139 -110 -274 -152 -328 -35 -43 -86 -73 -142
-80 -132 -18 -112 178 51 508 61 122 131 237 193 314 46 56 52 68 47 98 -6 36
-15 46 -78 87 -85 57 -135 29 -226 -124 -69 -118 -127 -250 -184 -420 -80
-242 -92 -343 -55 -462 34 -108 95 -149 212 -143 82 4 106 17 209 114 60 56
63 57 75 11 14 -51 61 -106 105 -120 51 -17 141 -3 209 33 32 17 95 65 139
107 95 88 237 263 237 290 0 52 -44 92 -85 77 -8 -4 -26 -30 -41 -59 -42 -83
-197 -263 -247 -286 -74 -36 -129 -33 -149 8 -38 79 30 278 189 550 56 94 171
270 184 280 11 8 23 62 20 85 -4 30 -16 40 -74 68 -70 33 -88 37 -114 27z"/>
<path d="M3447 904 c-1 -1 -90 -5 -197 -9 -107 -3 -249 -8 -315 -10 -66 -3
-192 -7 -280 -10 -88 -3 -218 -7 -290 -10 -71 -2 -206 -7 -300 -10 -93 -3
-228 -8 -300 -10 -71 -3 -211 -7 -310 -10 -99 -3 -229 -7 -290 -10 -60 -2
-193 -7 -295 -10 -367 -12 -396 -14 -454 -35 -131 -49 -144 -171 -18 -173 20
0 64 3 97 7 33 4 98 11 145 17 95 12 122 15 230 24 41 3 91 8 110 10 19 3 76
7 125 10 50 3 122 7 160 10 39 2 133 7 210 10 77 3 187 7 245 10 58 3 152 7
210 10 170 8 339 16 425 20 44 2 134 7 200 10 66 3 158 8 205 10 47 2 144 7
215 10 72 3 157 7 190 10 33 3 115 7 182 11 l121 5 11 -34 c15 -46 41 -67 84
-71 68 -7 147 65 147 132 0 42 -37 69 -108 78 -56 7 -151 12 -155 8z"/>
</g>
</svg>
